<svg xmlns="http://www.w3.org/2000/svg" viewBox="0 0 100 100" width="100" height="100">
  <defs>
    <linearGradient id="iconGradient" x1="0%" y1="0%" x2="100%" y2="100%">
      <stop offset="0%" style="stop-color:#13c5bc;stop-opacity:1" />
      <stop offset="50%" style="stop-color:#10b3a8;stop-opacity:1" />
      <stop offset="100%" style="stop-color:#0d9d96;stop-opacity:1" />
    </linearGradient>
  </defs>
  <!-- Abstract flowing icon shape - no background, transparent -->
  <path d="M 25 30 
           Q 15 40, 20 55
           Q 25 70, 40 65
           Q 55 60, 65 70
           Q 70 80, 60 85
           Q 50 90, 40 80
           Q 30 70, 35 60
           Q 40 50, 50 45
           Q 60 40, 65 30
           Q 70 20, 60 20
           Q 50 20, 40 25
           Q 30 30, 25 30 Z" 
        fill="url(#iconGradient)" 
        stroke="none"/>
  <path d="M 50 30 
           Q 60 40, 70 35
           Q 80 30, 75 45
           Q 70 60, 60 55
           Q 50 50, 45 60
           Q 40 70, 50 75
           Q 60 80, 70 70
           Q 80 60, 75 50
           Q 70 40, 60 45
           Q 50 50, 50 30 Z" 
        fill="url(#iconGradient)" 
        stroke="none" 
        opacity="0.8"/>
</svg>
